# MagicaVoxel @ Ephtracy

# group
o 

# material
mtllib something.mtl
usemtl palette

# normals
vn -1 0 0
vn 1 0 0
vn 0 0 1
vn 0 0 -1
vn 0 -1 0
vn 0 1 0

# texcoords
vt 0.0605469 0.5
vt 0.619141 0.5
vt 0.646484 0.5
vt 0.873047 0.5
vt 0.896484 0.5
vt 0.962891 0.5
vt 0.986328 0.5
vt 0.994141 0.5

# verts
v -1.4 0 0.8
v -1.4 0 0.4
v -1.4 0 -0.5
v -1.4 0 -0.9
v -1.4 0.3 0.8
v -1.4 0.3 0.4
v -1.4 0.3 -0.5
v -1.4 0.3 -0.9
v -1.4 1 0.4
v -1.4 1 -0.5
v -1.4 2.2 0.8
v -1.4 2.2 -0.9
v 0.6 2.8 0.4
v 0.6 2.8 -0.5
v 0.6 2.9 0.4
v 0.6 2.9 -0.5
v 0.7 2.8 0.5
v 0.7 2.8 0.4
v 0.7 2.8 -0.5
v 0.7 2.8 -0.6
v 0.7 2.9 0.5
v 0.7 2.9 0.4
v 0.7 2.9 -0.5
v 0.7 2.9 -0.6
v 0.8 2.2 0.4
v 0.8 2.2 -0.5
v 0.8 2.8 0.6
v 0.8 2.8 0.5
v 0.8 2.8 0.4
v 0.8 2.8 -0.5
v 0.8 2.8 -0.6
v 0.8 2.8 -0.7
v 0.8 2.9 0.6
v 0.8 2.9 0.5
v 0.8 2.9 -0.6
v 0.8 2.9 -0.7
v 0.9 2.9 0.3
v 0.9 2.9 -0.4
v 0.9 3.8 0.3
v 0.9 3.8 -0.4
v 1 0 0.8
v 1 0 0.4
v 1 0 -0.5
v 1 0 -0.9
v 1 0.3 0.8
v 1 0.3 0.4
v 1 0.3 -0.5
v 1 0.3 -0.9
v 1 0.5 0.8
v 1 0.5 0.4
v 1 0.5 -0.5
v 1 0.5 -0.9
v 1 1 0.8
v 1 1 0.4
v 1 1 -0.5
v 1 1 -0.9
v 1.1 2.4 0.7
v 1.1 2.4 0.4
v 1.1 2.4 -0.5
v 1.1 2.4 -0.8
v 1.1 2.6 0.5
v 1.1 2.6 0.4
v 1.1 2.6 -0.5
v 1.1 2.6 -0.6
v 1.1 2.8 0.6
v 1.1 2.8 0.5
v 1.1 2.8 -0.6
v 1.1 2.8 -0.7
v 1.1 2.9 0.6
v 1.1 2.9 0.5
v 1.1 2.9 -0.6
v 1.1 2.9 -0.7
v 1.1 3.5 0.7
v 1.1 3.5 0.5
v 1.1 3.5 -0.6
v 1.1 3.5 -0.8
v -1 0 0.8
v -1 0 0.7
v -1 0 0.5
v -1 0 0.4
v -1 0 -0.5
v -1 0 -0.6
v -1 0 -0.8
v -1 0 -0.9
v -1 0.1 0.8
v -1 0.1 0.7
v -1 0.1 0.5
v -1 0.1 0.4
v -1 0.1 -0.5
v -1 0.1 -0.6
v -1 0.1 -0.8
v -1 0.1 -0.9
v -1 0.2 0.8
v -1 0.2 0.4
v -1 0.2 -0.5
v -1 0.2 -0.9
v -1 1 0.8
v -1 1 0.4
v -1 1 -0.5
v -1 1 -0.9
v 1.3 2.4 0.7
v 1.3 2.4 0.4
v 1.3 2.4 -0.5
v 1.3 2.4 -0.8
v 1.3 2.6 0.5
v 1.3 2.6 0.4
v 1.3 2.6 -0.5
v 1.3 2.6 -0.6
v 1.3 2.8 0.6
v 1.3 2.8 0.5
v 1.3 2.8 -0.6
v 1.3 2.8 -0.7
v 1.3 2.9 0.6
v 1.3 2.9 0.5
v 1.3 2.9 -0.6
v 1.3 2.9 -0.7
v 1.3 3.5 0.7
v 1.3 3.5 0.5
v 1.3 3.5 -0.6
v 1.3 3.5 -0.8
v 1.4 0 0.8
v 1.4 0 0.7
v 1.4 0 0.5
v 1.4 0 0.4
v 1.4 0 -0.5
v 1.4 0 -0.6
v 1.4 0 -0.8
v 1.4 0 -0.9
v 1.4 0.1 0.8
v 1.4 0.1 0.7
v 1.4 0.1 0.5
v 1.4 0.1 0.4
v 1.4 0.1 -0.5
v 1.4 0.1 -0.6
v 1.4 0.1 -0.8
v 1.4 0.1 -0.9
v 1.4 0.2 0.8
v 1.4 0.2 0.4
v 1.4 0.2 -0.5
v 1.4 0.2 -0.9
v 1.4 0.5 0.8
v 1.4 0.5 0.4
v 1.4 0.5 -0.5
v 1.4 0.5 -0.9
v 1.4 1 0.4
v 1.4 1 -0.5
v 1.4 1.5 0.2
v 1.4 1.5 -0.3
v 1.4 1.6 0.3
v 1.4 1.6 0.2
v 1.4 1.6 -0.3
v 1.4 1.6 -0.4
v 1.4 1.8 0.5
v 1.4 1.8 0.3
v 1.4 1.8 -0.4
v 1.4 1.8 -0.6
v 1.4 1.9 0.4
v 1.4 1.9 -0.5
v 1.4 2.2 0.8
v 1.4 2.2 0.5
v 1.4 2.2 0.4
v 1.4 2.2 -0.5
v 1.4 2.2 -0.6
v 1.4 2.2 -0.9
v 1.8 1.9 0.4
v 1.8 1.9 -0.5
v 1.8 2.1 0.1
v 1.8 2.1 -0.2
v 1.8 2.3 0.1
v 1.8 2.3 -0.2
v 1.8 2.5 0.2
v 1.8 2.5 0.1
v 1.8 2.5 0
v 1.8 2.5 -0.1
v 1.8 2.5 -0.2
v 1.8 2.5 -0.3
v 1.8 2.7 0.1
v 1.8 2.7 0
v 1.8 2.7 -0.1
v 1.8 2.7 -0.2
v 1.8 2.8 0.6
v 1.8 2.8 0.5
v 1.8 2.8 0.4
v 1.8 2.8 0.2
v 1.8 2.8 0
v 1.8 2.8 -0.1
v 1.8 2.8 -0.3
v 1.8 2.8 -0.5
v 1.8 2.8 -0.6
v 1.8 2.8 -0.7
v 1.8 2.9 0.6
v 1.8 2.9 0.5
v 1.8 2.9 0.3
v 1.8 2.9 -0.4
v 1.8 2.9 -0.6
v 1.8 2.9 -0.7
v 1.8 3.8 0.3
v 1.8 3.8 -0.4
v 1.9 2.1 0.1
v 1.9 2.1 -0.2
v 1.9 2.3 0.1
v 1.9 2.3 -0.2
v 1.9 2.8 0.5
v 1.9 2.8 0.4
v 1.9 2.8 -0.5
v 1.9 2.8 -0.6
v 1.9 2.9 0.5
v 1.9 2.9 0.4
v 1.9 2.9 -0.5
v 1.9 2.9 -0.6
v 2 2.8 0.4
v 2 2.8 -0.5
v 2 2.9 0.4
v 2 2.9 -0.5
v -1.4 0 0.8
v -1.4 0.3 0.8
v -1.4 2.2 0.8
v -1.2 0.2 0.8
v -1.2 0.3 0.8
v -1.1 0 0.8
v -1.1 0.1 0.8
v -1 0 0.8
v -1 0.1 0.8
v -1 0.2 0.8
v -1 1 0.8
v -0.7 1 0.8
v -0.7 2.2 0.8
v 1 0 0.8
v 1 0.3 0.8
v 1 0.5 0.8
v 1 1 0.8
v 1.2 0.2 0.8
v 1.2 0.3 0.8
v 1.3 0 0.8
v 1.3 0.1 0.8
v 1.4 0 0.8
v 1.4 0.1 0.8
v 1.4 0.2 0.8
v 1.4 0.5 0.8
v 1.4 2.2 0.8
v 1.1 2.4 0.7
v 1.1 3.5 0.7
v 1.3 2.4 0.7
v 1.3 3.5 0.7
v 0.8 2.8 0.6
v 0.8 2.9 0.6
v 1.1 2.8 0.6
v 1.1 2.9 0.6
v 1.3 2.8 0.6
v 1.3 2.9 0.6
v 1.8 2.8 0.6
v 1.8 2.9 0.6
v 0.7 2.8 0.5
v 0.7 2.9 0.5
v 0.8 2.8 0.5
v 0.8 2.9 0.5
v 1.8 2.8 0.5
v 1.8 2.9 0.5
v 1.9 2.8 0.5
v 1.9 2.9 0.5
v 0.6 2.8 0.4
v 0.6 2.9 0.4
v 0.7 2.8 0.4
v 0.7 2.9 0.4
v 0.8 2.2 0.4
v 0.8 2.8 0.4
v 1.1 2.4 0.4
v 1.1 2.6 0.4
v 1.3 2.4 0.4
v 1.3 2.6 0.4
v 1.4 1.9 0.4
v 1.4 2.2 0.4
v 1.8 1.9 0.4
v 1.8 2.8 0.4
v 1.9 2.8 0.4
v 1.9 2.9 0.4
v 2 2.8 0.4
v 2 2.9 0.4
v 0.9 2.9 0.3
v 0.9 3.8 0.3
v 1.8 2.9 0.3
v 1.8 3.8 0.3
v 1.8 2.1 0.1
v 1.8 2.3 0.1
v 1.9 2.1 0.1
v 1.9 2.3 0.1
v -1.4 0 -0.5
v -1.4 0.3 -0.5
v -1.4 1 -0.5
v -1.2 0.2 -0.5
v -1.2 0.3 -0.5
v -1.1 0 -0.5
v -1.1 0.1 -0.5
v -1 0 -0.5
v -1 0.1 -0.5
v -1 0.2 -0.5
v -1 1 -0.5
v 1 0 -0.5
v 1 0.3 -0.5
v 1 0.5 -0.5
v 1 1 -0.5
v 1.2 0.2 -0.5
v 1.2 0.3 -0.5
v 1.3 0 -0.5
v 1.3 0.1 -0.5
v 1.4 0 -0.5
v 1.4 0.1 -0.5
v 1.4 0.2 -0.5
v 1.4 0.5 -0.5
v 1.4 1 -0.5
v 1.1 2.6 -0.6
v 1.1 2.8 -0.6
v 1.1 2.9 -0.6
v 1.1 3.5 -0.6
v 1.3 2.6 -0.6
v 1.3 2.8 -0.6
v 1.3 2.9 -0.6
v 1.3 3.5 -0.6
v 1.1 2.6 0.5
v 1.1 2.8 0.5
v 1.1 2.9 0.5
v 1.1 3.5 0.5
v 1.3 2.6 0.5
v 1.3 2.8 0.5
v 1.3 2.9 0.5
v 1.3 3.5 0.5
v -1.4 0 0.4
v -1.4 0.3 0.4
v -1.4 1 0.4
v -1.2 0.2 0.4
v -1.2 0.3 0.4
v -1.1 0 0.4
v -1.1 0.1 0.4
v -1 0 0.4
v -1 0.1 0.4
v -1 0.2 0.4
v -1 1 0.4
v 1 0 0.4
v 1 0.3 0.4
v 1 0.5 0.4
v 1 1 0.4
v 1.2 0.2 0.4
v 1.2 0.3 0.4
v 1.3 0 0.4
v 1.3 0.1 0.4
v 1.4 0 0.4
v 1.4 0.1 0.4
v 1.4 0.2 0.4
v 1.4 0.5 0.4
v 1.4 1 0.4
v 1.8 2.1 -0.2
v 1.8 2.3 -0.2
v 1.9 2.1 -0.2
v 1.9 2.3 -0.2
v 0.9 2.9 -0.4
v 0.9 3.8 -0.4
v 1.8 2.9 -0.4
v 1.8 3.8 -0.4
v 0.6 2.8 -0.5
v 0.6 2.9 -0.5
v 0.7 2.8 -0.5
v 0.7 2.9 -0.5
v 0.8 2.2 -0.5
v 0.8 2.8 -0.5
v 1.1 2.4 -0.5
v 1.1 2.6 -0.5
v 1.3 2.4 -0.5
v 1.3 2.6 -0.5
v 1.4 1.9 -0.5
v 1.4 2.2 -0.5
v 1.8 1.9 -0.5
v 1.8 2.8 -0.5
v 1.9 2.8 -0.5
v 1.9 2.9 -0.5
v 2 2.8 -0.5
v 2 2.9 -0.5
v 0.7 2.8 -0.6
v 0.7 2.9 -0.6
v 0.8 2.8 -0.6
v 0.8 2.9 -0.6
v 1.8 2.8 -0.6
v 1.8 2.9 -0.6
v 1.9 2.8 -0.6
v 1.9 2.9 -0.6
v 0.8 2.8 -0.7
v 0.8 2.9 -0.7
v 1.1 2.8 -0.7
v 1.1 2.9 -0.7
v 1.3 2.8 -0.7
v 1.3 2.9 -0.7
v 1.8 2.8 -0.7
v 1.8 2.9 -0.7
v 1.1 2.4 -0.8
v 1.1 3.5 -0.8
v 1.3 2.4 -0.8
v 1.3 3.5 -0.8
v -1.4 0 -0.9
v -1.4 0.3 -0.9
v -1.4 2.2 -0.9
v -1.2 0.2 -0.9
v -1.2 0.3 -0.9
v -1.1 0 -0.9
v -1.1 0.1 -0.9
v -1 0 -0.9
v -1 0.1 -0.9
v -1 0.2 -0.9
v -1 1 -0.9
v -0.7 1 -0.9
v -0.7 2.2 -0.9
v 1 0 -0.9
v 1 0.3 -0.9
v 1 0.5 -0.9
v 1 1 -0.9
v 1.2 0.2 -0.9
v 1.2 0.3 -0.9
v 1.3 0 -0.9
v 1.3 0.1 -0.9
v 1.4 0 -0.9
v 1.4 0.1 -0.9
v 1.4 0.2 -0.9
v 1.4 0.5 -0.9
v 1.4 2.2 -0.9
v -1.4 0 0.8
v -1.1 0 0.8
v -1 0 0.8
v 1 0 0.8
v 1.3 0 0.8
v 1.4 0 0.8
v -1.1 0 0.7
v -1 0 0.7
v 1.3 0 0.7
v 1.4 0 0.7
v -1.1 0 0.5
v -1 0 0.5
v 1.3 0 0.5
v 1.4 0 0.5
v -1.4 0 0.4
v -1.1 0 0.4
v -1 0 0.4
v 1 0 0.4
v 1.3 0 0.4
v 1.4 0 0.4
v -1.4 0 -0.5
v -1.1 0 -0.5
v -1 0 -0.5
v 1 0 -0.5
v 1.3 0 -0.5
v 1.4 0 -0.5
v -1.1 0 -0.6
v -1 0 -0.6
v 1.3 0 -0.6
v 1.4 0 -0.6
v -1.1 0 -0.8
v -1 0 -0.8
v 1.3 0 -0.8
v 1.4 0 -0.8
v -1.4 0 -0.9
v -1.1 0 -0.9
v -1 0 -0.9
v 1 0 -0.9
v 1.3 0 -0.9
v 1.4 0 -0.9
v -1 1 0.8
v -0.7 1 0.8
v 1 1 0.8
v -1.4 1 0.4
v -1 1 0.4
v 1 1 0.4
v 1.4 1 0.4
v -1.4 1 -0.5
v -1 1 -0.5
v 1 1 -0.5
v 1.4 1 -0.5
v -1 1 -0.9
v -0.7 1 -0.9
v 1 1 -0.9
v 1.4 1.9 0.4
v 1.8 1.9 0.4
v 1.4 1.9 -0.5
v 1.8 1.9 -0.5
v 1.8 2.1 0.1
v 1.9 2.1 0.1
v 1.8 2.1 -0.2
v 1.9 2.1 -0.2
v 1.1 2.4 0.7
v 1.3 2.4 0.7
v 1.1 2.4 0.4
v 1.3 2.4 0.4
v 1.1 2.4 -0.5
v 1.3 2.4 -0.5
v 1.1 2.4 -0.8
v 1.3 2.4 -0.8
v 0.8 2.8 0.6
v 1.1 2.8 0.6
v 1.3 2.8 0.6
v 1.8 2.8 0.6
v 0.7 2.8 0.5
v 0.8 2.8 0.5
v 1.1 2.8 0.5
v 1.3 2.8 0.5
v 1.8 2.8 0.5
v 1.9 2.8 0.5
v 0.6 2.8 0.4
v 0.7 2.8 0.4
v 0.8 2.8 0.4
v 1.8 2.8 0.4
v 1.9 2.8 0.4
v 2 2.8 0.4
v 1.8 2.8 0.2
v 1.8 2.8 0
v 1.8 2.8 -0.1
v 1.8 2.8 -0.3
v 0.6 2.8 -0.5
v 0.7 2.8 -0.5
v 0.8 2.8 -0.5
v 1.8 2.8 -0.5
v 1.9 2.8 -0.5
v 2 2.8 -0.5
v 0.7 2.8 -0.6
v 0.8 2.8 -0.6
v 1.1 2.8 -0.6
v 1.3 2.8 -0.6
v 1.8 2.8 -0.6
v 1.9 2.8 -0.6
v 0.8 2.8 -0.7
v 1.1 2.8 -0.7
v 1.3 2.8 -0.7
v 1.8 2.8 -0.7
v -1.4 2.2 0.8
v -0.7 2.2 0.8
v 1.4 2.2 0.8
v 0.7 2.2 0.5
v 1.4 2.2 0.5
v 0.8 2.2 0.4
v 1.4 2.2 0.4
v 0.8 2.2 -0.5
v 1.4 2.2 -0.5
v 0.7 2.2 -0.6
v 1.4 2.2 -0.6
v -1.4 2.2 -0.9
v -0.7 2.2 -0.9
v 1.4 2.2 -0.9
v 1.8 2.3 0.1
v 1.9 2.3 0.1
v 1.8 2.3 -0.2
v 1.9 2.3 -0.2
v 1.1 2.6 0.5
v 1.3 2.6 0.5
v 1.1 2.6 0.4
v 1.3 2.6 0.4
v 1.1 2.6 -0.5
v 1.3 2.6 -0.5
v 1.1 2.6 -0.6
v 1.3 2.6 -0.6
v 0.8 2.9 0.6
v 1.1 2.9 0.6
v 1.3 2.9 0.6
v 1.8 2.9 0.6
v 0.7 2.9 0.5
v 0.8 2.9 0.5
v 1.1 2.9 0.5
v 1.3 2.9 0.5
v 1.8 2.9 0.5
v 1.9 2.9 0.5
v 0.6 2.9 0.4
v 0.7 2.9 0.4
v 1.9 2.9 0.4
v 2 2.9 0.4
v 0.9 2.9 0.3
v 1.8 2.9 0.3
v 0.9 2.9 -0.4
v 1.8 2.9 -0.4
v 0.6 2.9 -0.5
v 0.7 2.9 -0.5
v 1.9 2.9 -0.5
v 2 2.9 -0.5
v 0.7 2.9 -0.6
v 0.8 2.9 -0.6
v 1.1 2.9 -0.6
v 1.3 2.9 -0.6
v 1.8 2.9 -0.6
v 1.9 2.9 -0.6
v 0.8 2.9 -0.7
v 1.1 2.9 -0.7
v 1.3 2.9 -0.7
v 1.8 2.9 -0.7
v 1.1 3.5 0.7
v 1.3 3.5 0.7
v 1.1 3.5 0.5
v 1.3 3.5 0.5
v 1.1 3.5 -0.6
v 1.3 3.5 -0.6
v 1.1 3.5 -0.8
v 1.3 3.5 -0.8
v 0.9 3.8 0.3
v 1.8 3.8 0.3
v 0.9 3.8 -0.4
v 1.8 3.8 -0.4

# faces
f 5/8/1 2/8/1 1/8/1
f 6/8/1 2/8/1 5/8/1
f 7/8/1 4/8/1 3/8/1
f 8/8/1 4/8/1 7/8/1
f 9/7/1 6/7/1 5/7/1
f 10/7/1 8/7/1 7/7/1
f 11/7/1 9/7/1 5/7/1
f 11/7/1 10/7/1 9/7/1
f 12/7/1 8/7/1 10/7/1
f 12/7/1 10/7/1 11/7/1
f 15/8/1 14/8/1 13/8/1
f 16/8/1 14/8/1 15/8/1
f 21/8/1 18/8/1 17/8/1
f 22/8/1 18/8/1 21/8/1
f 23/8/1 20/8/1 19/8/1
f 24/8/1 20/8/1 23/8/1
f 29/3/1 26/3/1 25/3/1
f 30/3/1 26/3/1 29/3/1
f 33/8/1 28/8/1 27/8/1
f 34/8/1 28/8/1 33/8/1
f 35/8/1 32/8/1 31/8/1
f 36/8/1 32/8/1 35/8/1
f 39/8/1 38/8/1 37/8/1
f 40/8/1 38/8/1 39/8/1
f 45/8/1 42/8/1 41/8/1
f 46/8/1 42/8/1 45/8/1
f 47/8/1 44/8/1 43/8/1
f 48/8/1 44/8/1 47/8/1
f 49/3/1 46/3/1 45/3/1
f 50/3/1 46/3/1 49/3/1
f 51/3/1 48/3/1 47/3/1
f 52/3/1 48/3/1 51/3/1
f 53/5/1 50/5/1 49/5/1
f 54/5/1 50/5/1 53/5/1
f 55/5/1 52/5/1 51/5/1
f 56/5/1 52/5/1 55/5/1
f 61/4/1 58/4/1 57/4/1
f 62/4/1 58/4/1 61/4/1
f 63/4/1 60/4/1 59/4/1
f 64/4/1 60/4/1 63/4/1
f 65/4/1 61/4/1 57/4/1
f 66/4/1 61/4/1 65/4/1
f 67/4/1 60/4/1 64/4/1
f 68/4/1 60/4/1 67/4/1
f 69/4/1 65/4/1 57/4/1
f 72/4/1 60/4/1 68/4/1
f 73/4/1 70/4/1 69/4/1
f 73/4/1 69/4/1 57/4/1
f 74/4/1 70/4/1 73/4/1
f 75/4/1 72/4/1 71/4/1
f 76/4/1 60/4/1 72/4/1
f 76/4/1 72/4/1 75/4/1
f 77/2/2 78/2/2 85/2/2
f 78/6/2 79/6/2 86/6/2
f 85/2/2 78/2/2 86/2/2
f 79/2/2 80/2/2 87/2/2
f 86/6/2 79/6/2 87/6/2
f 87/2/2 80/2/2 88/2/2
f 81/2/2 82/2/2 89/2/2
f 82/6/2 83/6/2 90/6/2
f 89/2/2 82/2/2 90/2/2
f 83/2/2 84/2/2 91/2/2
f 90/6/2 83/6/2 91/6/2
f 91/2/2 84/2/2 92/2/2
f 85/8/2 86/8/2 93/8/2
f 87/8/2 88/8/2 93/8/2
f 86/8/2 87/8/2 93/8/2
f 93/8/2 88/8/2 94/8/2
f 89/8/2 90/8/2 95/8/2
f 91/8/2 92/8/2 95/8/2
f 90/8/2 91/8/2 95/8/2
f 95/8/2 92/8/2 96/8/2
f 93/7/2 94/7/2 97/7/2
f 97/7/2 94/7/2 98/7/2
f 95/7/2 96/7/2 99/7/2
f 99/7/2 96/7/2 100/7/2
f 101/4/2 102/4/2 105/4/2
f 105/4/2 102/4/2 106/4/2
f 103/4/2 104/4/2 107/4/2
f 107/4/2 104/4/2 108/4/2
f 101/4/2 105/4/2 109/4/2
f 109/4/2 105/4/2 110/4/2
f 108/4/2 104/4/2 111/4/2
f 111/4/2 104/4/2 112/4/2
f 101/4/2 109/4/2 113/4/2
f 112/4/2 104/4/2 116/4/2
f 113/4/2 114/4/2 117/4/2
f 101/4/2 113/4/2 117/4/2
f 117/4/2 114/4/2 118/4/2
f 115/4/2 116/4/2 119/4/2
f 116/4/2 104/4/2 120/4/2
f 119/4/2 116/4/2 120/4/2
f 121/2/2 122/2/2 129/2/2
f 122/6/2 123/6/2 130/6/2
f 129/2/2 122/2/2 130/2/2
f 123/2/2 124/2/2 131/2/2
f 130/6/2 123/6/2 131/6/2
f 131/2/2 124/2/2 132/2/2
f 125/2/2 126/2/2 133/2/2
f 126/6/2 127/6/2 134/6/2
f 133/2/2 126/2/2 134/2/2
f 127/2/2 128/2/2 135/2/2
f 134/6/2 127/6/2 135/6/2
f 135/2/2 128/2/2 136/2/2
f 129/8/2 130/8/2 137/8/2
f 131/8/2 132/8/2 137/8/2
f 130/8/2 131/8/2 137/8/2
f 137/8/2 132/8/2 138/8/2
f 133/8/2 134/8/2 139/8/2
f 135/8/2 136/8/2 139/8/2
f 134/8/2 135/8/2 139/8/2
f 139/8/2 136/8/2 140/8/2
f 137/3/2 138/3/2 141/3/2
f 141/3/2 138/3/2 142/3/2
f 139/3/2 140/3/2 143/3/2
f 143/3/2 140/3/2 144/3/2
f 141/5/2 142/5/2 145/5/2
f 143/5/2 144/5/2 146/5/2
f 145/5/2 146/5/2 147/5/2
f 147/5/2 146/5/2 148/5/2
f 145/5/2 147/5/2 149/5/2
f 147/3/2 148/3/2 150/3/2
f 149/5/2 147/5/2 150/5/2
f 148/5/2 146/5/2 151/5/2
f 150/3/2 148/3/2 151/3/2
f 151/5/2 146/5/2 152/5/2
f 141/5/2 145/5/2 153/5/2
f 145/5/2 149/5/2 153/5/2
f 149/3/2 150/3/2 154/3/2
f 153/5/2 149/5/2 154/5/2
f 151/3/2 152/3/2 154/3/2
f 150/3/2 151/3/2 154/3/2
f 152/5/2 146/5/2 155/5/2
f 154/3/2 152/3/2 155/3/2
f 146/5/2 144/5/2 156/5/2
f 155/5/2 146/5/2 156/5/2
f 153/1/2 154/1/2 157/1/2
f 154/1/2 155/1/2 157/1/2
f 155/1/2 156/1/2 157/1/2
f 157/1/2 156/1/2 158/1/2
f 141/5/2 153/5/2 159/5/2
f 153/1/2 157/1/2 160/1/2
f 159/5/2 153/5/2 160/5/2
f 160/1/2 157/1/2 161/1/2
f 158/1/2 156/1/2 162/1/2
f 156/5/2 144/5/2 163/5/2
f 162/1/2 156/1/2 163/1/2
f 163/5/2 144/5/2 164/5/2
f 165/3/2 166/3/2 167/3/2
f 167/3/2 166/3/2 168/3/2
f 165/3/2 167/3/2 169/3/2
f 168/3/2 166/3/2 170/3/2
f 165/3/2 169/3/2 171/3/2
f 169/3/2 170/3/2 171/3/2
f 171/3/2 170/3/2 172/3/2
f 172/3/2 170/3/2 173/3/2
f 173/3/2 170/3/2 174/3/2
f 170/3/2 166/3/2 175/3/2
f 174/3/2 170/3/2 175/3/2
f 175/3/2 166/3/2 176/3/2
f 171/6/2 172/6/2 177/6/2
f 172/8/2 173/8/2 177/8/2
f 173/3/2 174/3/2 178/3/2
f 177/8/2 173/8/2 178/8/2
f 174/8/2 175/8/2 179/8/2
f 178/3/2 174/3/2 179/3/2
f 175/6/2 176/6/2 180/6/2
f 179/8/2 175/8/2 180/8/2
f 165/3/2 171/3/2 183/3/2
f 171/6/2 177/6/2 184/6/2
f 183/3/2 171/3/2 184/3/2
f 177/6/2 178/6/2 184/6/2
f 178/3/2 179/3/2 185/3/2
f 184/6/2 178/6/2 185/6/2
f 179/6/2 180/6/2 186/6/2
f 185/3/2 179/3/2 186/3/2
f 176/3/2 166/3/2 187/3/2
f 186/6/2 180/6/2 187/6/2
f 180/6/2 176/6/2 187/6/2
f 187/3/2 166/3/2 188/3/2
f 181/8/2 182/8/2 191/8/2
f 191/8/2 182/8/2 192/8/2
f 189/8/2 190/8/2 195/8/2
f 195/8/2 190/8/2 196/8/2
f 193/8/2 194/8/2 197/8/2
f 197/8/2 194/8/2 198/8/2
f 199/8/2 200/8/2 201/8/2
f 201/8/2 200/8/2 202/8/2
f 203/8/2 204/8/2 207/8/2
f 207/8/2 204/8/2 208/8/2
f 205/8/2 206/8/2 209/8/2
f 209/8/2 206/8/2 210/8/2
f 211/8/2 212/8/2 213/8/2
f 213/8/2 212/8/2 214/8/2
f 218/8/3 216/8/3 215/8/3
f 219/7/3 217/7/3 216/7/3
f 219/8/3 216/8/3 218/8/3
f 220/8/3 218/8/3 215/8/3
f 221/8/3 218/8/3 220/8/3
f 222/2/3 221/2/3 220/2/3
f 223/8/3 218/8/3 221/8/3
f 223/2/3 221/2/3 222/2/3
f 224/7/3 219/7/3 218/7/3
f 224/8/3 218/8/3 223/8/3
f 225/7/3 217/7/3 219/7/3
f 225/7/3 219/7/3 224/7/3
f 226/7/3 217/7/3 225/7/3
f 227/7/3 217/7/3 226/7/3
f 231/5/3 227/5/3 226/5/3
f 232/8/3 229/8/3 228/8/3
f 233/3/3 230/3/3 229/3/3
f 233/8/3 229/8/3 232/8/3
f 234/8/3 232/8/3 228/8/3
f 235/8/3 232/8/3 234/8/3
f 236/2/3 235/2/3 234/2/3
f 237/8/3 232/8/3 235/8/3
f 237/2/3 235/2/3 236/2/3
f 238/3/3 233/3/3 232/3/3
f 238/8/3 232/8/3 237/8/3
f 239/3/3 230/3/3 233/3/3
f 239/3/3 233/3/3 238/3/3
f 239/5/3 231/5/3 230/5/3
f 240/5/3 227/5/3 231/5/3
f 240/5/3 231/5/3 239/5/3
f 243/4/3 242/4/3 241/4/3
f 244/4/3 242/4/3 243/4/3
f 247/8/3 246/8/3 245/8/3
f 248/8/3 246/8/3 247/8/3
f 251/8/3 250/8/3 249/8/3
f 252/8/3 250/8/3 251/8/3
f 255/8/3 254/8/3 253/8/3
f 256/8/3 254/8/3 255/8/3
f 259/8/3 258/8/3 257/8/3
f 260/8/3 258/8/3 259/8/3
f 263/8/3 262/8/3 261/8/3
f 264/8/3 262/8/3 263/8/3
f 267/3/3 266/3/3 265/3/3
f 268/3/3 266/3/3 267/3/3
f 269/3/3 267/3/3 265/3/3
f 270/3/3 266/3/3 268/3/3
f 272/3/3 269/3/3 265/3/3
f 272/3/3 270/3/3 269/3/3
f 273/3/3 272/3/3 271/3/3
f 274/3/3 266/3/3 270/3/3
f 274/3/3 272/3/3 273/3/3
f 274/3/3 270/3/3 272/3/3
f 277/8/3 276/8/3 275/8/3
f 278/8/3 276/8/3 277/8/3
f 281/8/3 280/8/3 279/8/3
f 282/8/3 280/8/3 281/8/3
f 285/8/3 284/8/3 283/8/3
f 286/8/3 284/8/3 285/8/3
f 290/8/3 288/8/3 287/8/3
f 291/7/3 289/7/3 288/7/3
f 291/8/3 288/8/3 290/8/3
f 292/8/3 290/8/3 287/8/3
f 293/8/3 290/8/3 292/8/3
f 294/2/3 293/2/3 292/2/3
f 295/8/3 290/8/3 293/8/3
f 295/2/3 293/2/3 294/2/3
f 296/7/3 291/7/3 290/7/3
f 296/8/3 290/8/3 295/8/3
f 297/7/3 289/7/3 291/7/3
f 297/7/3 291/7/3 296/7/3
f 302/8/3 299/8/3 298/8/3
f 303/3/3 300/3/3 299/3/3
f 303/8/3 299/8/3 302/8/3
f 304/8/3 302/8/3 298/8/3
f 305/8/3 302/8/3 304/8/3
f 306/2/3 305/2/3 304/2/3
f 307/8/3 302/8/3 305/8/3
f 307/2/3 305/2/3 306/2/3
f 308/3/3 303/3/3 302/3/3
f 308/8/3 302/8/3 307/8/3
f 309/5/3 301/5/3 300/5/3
f 309/3/3 303/3/3 308/3/3
f 309/3/3 300/3/3 303/3/3
f 310/5/3 301/5/3 309/5/3
f 315/4/3 312/4/3 311/4/3
f 316/4/3 312/4/3 315/4/3
f 317/4/3 314/4/3 313/4/3
f 318/4/3 314/4/3 317/4/3
f 319/4/4 320/4/4 323/4/4
f 323/4/4 320/4/4 324/4/4
f 321/4/4 322/4/4 325/4/4
f 325/4/4 322/4/4 326/4/4
f 327/8/4 328/8/4 330/8/4
f 328/7/4 329/7/4 331/7/4
f 330/8/4 328/8/4 331/8/4
f 327/8/4 330/8/4 332/8/4
f 332/8/4 330/8/4 333/8/4
f 332/2/4 333/2/4 334/2/4
f 333/8/4 330/8/4 335/8/4
f 334/2/4 333/2/4 335/2/4
f 330/7/4 331/7/4 336/7/4
f 335/8/4 330/8/4 336/8/4
f 331/7/4 329/7/4 337/7/4
f 336/7/4 331/7/4 337/7/4
f 338/8/4 339/8/4 342/8/4
f 339/3/4 340/3/4 343/3/4
f 342/8/4 339/8/4 343/8/4
f 338/8/4 342/8/4 344/8/4
f 344/8/4 342/8/4 345/8/4
f 344/2/4 345/2/4 346/2/4
f 345/8/4 342/8/4 347/8/4
f 346/2/4 345/2/4 347/2/4
f 342/3/4 343/3/4 348/3/4
f 347/8/4 342/8/4 348/8/4
f 340/5/4 341/5/4 349/5/4
f 348/3/4 343/3/4 349/3/4
f 343/3/4 340/3/4 349/3/4
f 349/5/4 341/5/4 350/5/4
f 351/8/4 352/8/4 353/8/4
f 353/8/4 352/8/4 354/8/4
f 355/8/4 356/8/4 357/8/4
f 357/8/4 356/8/4 358/8/4
f 359/8/4 360/8/4 361/8/4
f 361/8/4 360/8/4 362/8/4
f 363/3/4 364/3/4 365/3/4
f 365/3/4 364/3/4 366/3/4
f 363/3/4 365/3/4 367/3/4
f 366/3/4 364/3/4 368/3/4
f 363/3/4 367/3/4 370/3/4
f 367/3/4 368/3/4 370/3/4
f 369/3/4 370/3/4 371/3/4
f 368/3/4 364/3/4 372/3/4
f 371/3/4 370/3/4 372/3/4
f 370/3/4 368/3/4 372/3/4
f 373/8/4 374/8/4 375/8/4
f 375/8/4 374/8/4 376/8/4
f 377/8/4 378/8/4 379/8/4
f 379/8/4 378/8/4 380/8/4
f 381/8/4 382/8/4 383/8/4
f 383/8/4 382/8/4 384/8/4
f 385/8/4 386/8/4 387/8/4
f 387/8/4 386/8/4 388/8/4
f 389/8/4 390/8/4 391/8/4
f 391/8/4 390/8/4 392/8/4
f 393/4/4 394/4/4 395/4/4
f 395/4/4 394/4/4 396/4/4
f 397/8/4 398/8/4 400/8/4
f 398/7/4 399/7/4 401/7/4
f 400/8/4 398/8/4 401/8/4
f 397/8/4 400/8/4 402/8/4
f 402/8/4 400/8/4 403/8/4
f 402/2/4 403/2/4 404/2/4
f 403/8/4 400/8/4 405/8/4
f 404/2/4 403/2/4 405/2/4
f 400/7/4 401/7/4 406/7/4
f 405/8/4 400/8/4 406/8/4
f 401/7/4 399/7/4 407/7/4
f 406/7/4 401/7/4 407/7/4
f 407/7/4 399/7/4 408/7/4
f 408/7/4 399/7/4 409/7/4
f 408/5/4 409/5/4 413/5/4
f 410/8/4 411/8/4 414/8/4
f 411/3/4 412/3/4 415/3/4
f 414/8/4 411/8/4 415/8/4
f 410/8/4 414/8/4 416/8/4
f 416/8/4 414/8/4 417/8/4
f 416/2/4 417/2/4 418/2/4
f 417/8/4 414/8/4 419/8/4
f 418/2/4 417/2/4 419/2/4
f 414/3/4 415/3/4 420/3/4
f 419/8/4 414/8/4 420/8/4
f 415/3/4 412/3/4 421/3/4
f 420/3/4 415/3/4 421/3/4
f 412/5/4 413/5/4 421/5/4
f 413/5/4 409/5/4 422/5/4
f 421/5/4 413/5/4 422/5/4
f 429/8/5 424/8/5 423/8/5
f 429/2/5 425/2/5 424/2/5
f 430/2/5 425/2/5 429/2/5
f 431/2/5 428/2/5 427/2/5
f 431/8/5 427/8/5 426/8/5
f 432/2/5 428/2/5 431/2/5
f 433/6/5 430/6/5 429/6/5
f 433/8/5 429/8/5 423/8/5
f 434/6/5 430/6/5 433/6/5
f 435/6/5 432/6/5 431/6/5
f 435/8/5 431/8/5 426/8/5
f 436/6/5 432/6/5 435/6/5
f 437/8/5 433/8/5 423/8/5
f 438/2/5 434/2/5 433/2/5
f 438/8/5 433/8/5 437/8/5
f 439/2/5 434/2/5 438/2/5
f 440/8/5 435/8/5 426/8/5
f 441/2/5 436/2/5 435/2/5
f 441/8/5 435/8/5 440/8/5
f 442/2/5 436/2/5 441/2/5
f 449/8/5 444/8/5 443/8/5
f 449/2/5 445/2/5 444/2/5
f 450/2/5 445/2/5 449/2/5
f 451/2/5 448/2/5 447/2/5
f 451/8/5 447/8/5 446/8/5
f 452/2/5 448/2/5 451/2/5
f 453/6/5 450/6/5 449/6/5
f 453/8/5 449/8/5 443/8/5
f 454/6/5 450/6/5 453/6/5
f 455/6/5 452/6/5 451/6/5
f 455/8/5 451/8/5 446/8/5
f 456/6/5 452/6/5 455/6/5
f 457/8/5 453/8/5 443/8/5
f 458/2/5 454/2/5 453/2/5
f 458/8/5 453/8/5 457/8/5
f 459/2/5 454/2/5 458/2/5
f 460/8/5 455/8/5 446/8/5
f 461/2/5 456/2/5 455/2/5
f 461/8/5 455/8/5 460/8/5
f 462/2/5 456/2/5 461/2/5
f 467/7/5 464/7/5 463/7/5
f 468/5/5 465/5/5 464/5/5
f 470/7/5 467/7/5 466/7/5
f 471/7/5 464/7/5 467/7/5
f 471/7/5 467/7/5 470/7/5
f 472/5/5 469/5/5 468/5/5
f 472/5/5 468/5/5 464/5/5
f 473/5/5 469/5/5 472/5/5
f 474/7/5 464/7/5 471/7/5
f 475/5/5 472/5/5 464/5/5
f 475/7/5 464/7/5 474/7/5
f 476/5/5 472/5/5 475/5/5
f 479/3/5 478/3/5 477/3/5
f 480/3/5 478/3/5 479/3/5
f 483/8/5 482/8/5 481/8/5
f 484/8/5 482/8/5 483/8/5
f 487/4/5 486/4/5 485/4/5
f 488/4/5 486/4/5 487/4/5
f 491/4/5 490/4/5 489/4/5
f 492/4/5 490/4/5 491/4/5
f 498/8/5 494/8/5 493/8/5
f 499/8/5 494/8/5 498/8/5
f 500/8/5 496/8/5 495/8/5
f 501/8/5 496/8/5 500/8/5
f 504/8/5 499/8/5 498/8/5
f 504/8/5 502/8/5 501/8/5
f 504/8/5 501/8/5 500/8/5
f 504/8/5 500/8/5 499/8/5
f 504/8/5 498/8/5 497/8/5
f 505/8/5 502/8/5 504/8/5
f 506/8/5 502/8/5 505/8/5
f 507/8/5 502/8/5 506/8/5
f 509/8/5 508/8/5 507/8/5
f 509/8/5 507/8/5 506/8/5
f 510/8/5 508/8/5 509/8/5
f 511/8/5 508/8/5 510/8/5
f 512/8/5 508/8/5 511/8/5
f 513/8/5 504/8/5 503/8/5
f 513/8/5 505/8/5 504/8/5
f 514/8/5 505/8/5 513/8/5
f 515/8/5 505/8/5 514/8/5
f 516/8/5 508/8/5 512/8/5
f 517/8/5 508/8/5 516/8/5
f 518/8/5 508/8/5 517/8/5
f 519/8/5 515/8/5 514/8/5
f 519/8/5 517/8/5 516/8/5
f 519/8/5 516/8/5 515/8/5
f 520/8/5 517/8/5 519/8/5
f 521/8/5 517/8/5 520/8/5
f 522/8/5 517/8/5 521/8/5
f 523/8/5 517/8/5 522/8/5
f 524/8/5 517/8/5 523/8/5
f 525/8/5 521/8/5 520/8/5
f 526/8/5 521/8/5 525/8/5
f 527/8/5 523/8/5 522/8/5
f 528/8/5 523/8/5 527/8/5
f 530/5/6 531/5/6 532/5/6
f 532/5/6 531/5/6 533/5/6
f 532/1/6 533/1/6 534/1/6
f 534/1/6 533/1/6 535/1/6
f 532/1/6 534/1/6 536/1/6
f 530/5/6 532/5/6 538/5/6
f 536/1/6 537/1/6 538/1/6
f 532/1/6 536/1/6 538/1/6
f 538/1/6 537/1/6 539/1/6
f 529/7/6 530/7/6 540/7/6
f 530/5/6 538/5/6 541/5/6
f 540/7/6 530/7/6 541/7/6
f 538/5/6 539/5/6 541/5/6
f 541/5/6 539/5/6 542/5/6
f 543/8/6 544/8/6 545/8/6
f 545/8/6 544/8/6 546/8/6
f 547/4/6 548/4/6 549/4/6
f 549/4/6 548/4/6 550/4/6
f 551/4/6 552/4/6 553/4/6
f 553/4/6 552/4/6 554/4/6
f 555/8/6 556/8/6 560/8/6
f 560/8/6 556/8/6 561/8/6
f 557/8/6 558/8/6 562/8/6
f 562/8/6 558/8/6 563/8/6
f 560/8/6 561/8/6 566/8/6
f 563/8/6 564/8/6 566/8/6
f 562/8/6 563/8/6 566/8/6
f 561/8/6 562/8/6 566/8/6
f 559/8/6 560/8/6 566/8/6
f 566/8/6 564/8/6 567/8/6
f 565/8/6 566/8/6 569/8/6
f 567/8/6 568/8/6 569/8/6
f 566/8/6 567/8/6 569/8/6
f 569/8/6 568/8/6 570/8/6
f 565/8/6 569/8/6 571/8/6
f 570/8/6 568/8/6 572/8/6
f 565/8/6 571/8/6 573/8/6
f 571/8/6 572/8/6 573/8/6
f 573/8/6 572/8/6 574/8/6
f 572/8/6 568/8/6 575/8/6
f 574/8/6 572/8/6 575/8/6
f 575/8/6 568/8/6 576/8/6
f 574/8/6 575/8/6 577/8/6
f 577/8/6 575/8/6 578/8/6
f 578/8/6 575/8/6 579/8/6
f 579/8/6 575/8/6 580/8/6
f 580/8/6 575/8/6 581/8/6
f 581/8/6 575/8/6 582/8/6
f 578/8/6 579/8/6 583/8/6
f 583/8/6 579/8/6 584/8/6
f 580/8/6 581/8/6 585/8/6
f 585/8/6 581/8/6 586/8/6
f 587/4/6 588/4/6 589/4/6
f 589/4/6 588/4/6 590/4/6
f 591/4/6 592/4/6 593/4/6
f 593/4/6 592/4/6 594/4/6
f 595/8/6 596/8/6 597/8/6
f 597/8/6 596/8/6 598/8/6
